<svg width="360" height="252" viewBox="0 0 360 252" fill="none" xmlns="http://www.w3.org/2000/svg">
<path d="M343.703 88.2607L333.534 61.0308L332.621 58.5856L330.968 60.6063C277.85 125.539 258.115 152.409 205.924 186.093L203.414 187.703C149.486 222.054 107.906 233.704 4.89981 249.567L4.24389 248.958C101.452 233.628 158.291 206.311 196.542 177.976L198.368 176.612C236.969 147.539 270.773 108.98 313.393 51.322L315.251 48.8072L312.127 48.9309L283.563 50.0648L357.354 3.28663L343.703 88.2607Z" fill="url(#paint0_linear_11_34)"/>
<path d="M343.703 88.2607L333.534 61.0308L332.621 58.5856L330.968 60.6063C277.85 125.539 258.115 152.409 205.924 186.093L203.414 187.703C149.486 222.054 107.906 233.704 4.89981 249.567L4.24389 248.958C101.452 233.628 158.291 206.311 196.542 177.976L198.368 176.612C236.969 147.539 270.773 108.98 313.393 51.322L315.251 48.8072L312.127 48.9309L283.563 50.0648L357.354 3.28663L343.703 88.2607Z" stroke="url(#paint1_linear_11_34)" stroke-width="3" style="mix-blend-mode:overlay"/>
<defs>
<linearGradient id="paint0_linear_11_34" x1="308.141" y1="72.7734" x2="-0.132171" y2="228.288" gradientUnits="userSpaceOnUse">
<stop stop-color="#F0D32C"/>
<stop offset="1" stop-color="#FFC400" stop-opacity="0"/>
</linearGradient>
<linearGradient id="paint1_linear_11_34" x1="316.696" y1="5.82877" x2="318.387" y2="79.0297" gradientUnits="userSpaceOnUse">
<stop stop-color="white" stop-opacity="0.7"/>
<stop offset="1" stop-color="white" stop-opacity="0"/>
</linearGradient>
</defs>
</svg>
