<svg width="26" height="26" viewBox="0 0 26 26" fill="none" xmlns="http://www.w3.org/2000/svg">
<path d="M13 4.40625C12.668 4.40625 12.4141 4.66016 12.4141 4.99219V16.4766L9.50391 13.5664C9.26953 13.332 8.89844 13.332 8.68359 13.5664C8.44922 13.8008 8.44922 14.1719 8.68359 14.3867L12.5898 18.293C12.707 18.4102 12.8633 18.4688 13 18.4688C13.1367 18.4688 13.293 18.4102 13.4102 18.293L17.3164 14.3867C17.5508 14.1523 17.5508 13.7812 17.3164 13.5664C17.082 13.332 16.7109 13.332 16.4961 13.5664L13.5859 16.4766V4.99219C13.5859 4.66016 13.332 4.40625 13 4.40625Z" fill="white"/>
<path d="M19.6797 22.7266C19.6797 22.3945 19.4258 22.1406 19.0937 22.1406H6.90625C6.57422 22.1406 6.32031 22.3945 6.32031 22.7266C6.32031 23.0586 6.57422 23.3125 6.90625 23.3125H19.0937C19.4258 23.3125 19.6797 23.0391 19.6797 22.7266Z" fill="white"/>
</svg>
