<svg width="50" height="50" viewBox="0 0 50 50" fill="none" xmlns="http://www.w3.org/2000/svg">
<path d="M8.52185 22.4844C9.74998 23.5875 10.5229 25.924 10.5229 27.6406V27.8865H20.8271V27.7823C20.8271 26.0833 21.4781 23.6615 22.7052 22.5906" fill="#FBC02D"/>
<path d="M15.625 25C21.9533 25 27.0834 19.8699 27.0834 13.5417C27.0834 7.21341 21.9533 2.08334 15.625 2.08334C9.29676 2.08334 4.16669 7.21341 4.16669 13.5417C4.16669 19.8699 9.29676 25 15.625 25Z" fill="#FBC02D"/>
<path d="M17.1459 35.4166H14.1042C12.0688 35.4166 10.4167 33.726 10.4167 31.6906V27.0833H20.8334V31.6906C20.8334 33.726 19.824 35.4166 17.7886 35.4166H17.1459Z" fill="#5C6BC0"/>
<path d="M12.2427 34.8583L20.4323 33.6938C20.6833 33.1417 20.8136 32.4917 20.8261 31.7969L10.7615 33.2229C11.0761 33.9094 11.5969 34.475 12.2427 34.8583Z" fill="#5C6BC0"/>
<path d="M20.8334 28.1094L10.4167 29.5865V31.4292L20.8334 29.9521V28.1094Z" fill="#5C6BC0"/>
<path d="M15.625 37.5C16.7761 37.5 17.7084 36.5677 17.7084 35.4167H13.5417C13.5417 36.5677 14.474 37.5 15.625 37.5Z" fill="#5C6BC0"/>
<path d="M18.75 43.751V25.001C18.75 22.7094 20.625 20.8344 22.9167 20.8344H39.5833C41.875 20.8344 43.75 22.7094 43.75 25.001V43.751C43.75 46.0427 41.875 47.9177 39.5833 47.9177H22.9167C20.625 47.9177 18.75 46.0427 18.75 43.751Z" fill="#C8E6C9"/>
<path d="M25 23.9594C25 22.8083 24.0677 21.876 22.9166 21.876C21.7656 21.876 20.8333 22.8083 20.8333 23.9594C20.8333 25.1104 21.7656 26.0427 22.9166 26.0427C24.0677 26.0427 25 25.1094 25 23.9594ZM33.3333 23.9594C33.3333 22.8083 32.401 21.876 31.25 21.876C30.0989 21.876 29.1666 22.8083 29.1666 23.9594C29.1666 25.1104 30.0989 26.0427 31.25 26.0427C32.401 26.0427 33.3333 25.1094 33.3333 23.9594ZM41.6666 23.9594C41.6666 22.8083 40.7344 21.876 39.5833 21.876C38.4323 21.876 37.5 22.8083 37.5 23.9594C37.5 25.1104 38.4323 26.0427 39.5833 26.0427C40.7344 26.0427 41.6666 25.1094 41.6666 23.9594Z" fill="#388E3C"/>
<path d="M21.875 23.9594V19.7927C21.875 19.1677 22.2917 18.751 22.9167 18.751C23.5417 18.751 23.9583 19.1677 23.9583 19.7927V23.9594C23.9583 24.5844 23.5417 25.001 22.9167 25.001C22.2917 25.001 21.875 24.5844 21.875 23.9594ZM30.2083 23.9594V19.7927C30.2083 19.1677 30.625 18.751 31.25 18.751C31.875 18.751 32.2917 19.1677 32.2917 19.7927V23.9594C32.2917 24.5844 31.875 25.001 31.25 25.001C30.625 25.001 30.2083 24.5844 30.2083 23.9594ZM38.5417 23.9594V19.7927C38.5417 19.1677 38.9583 18.751 39.5833 18.751C40.2083 18.751 40.625 19.1677 40.625 19.7927V23.9594C40.625 24.5844 40.2083 25.001 39.5833 25.001C38.9583 25.001 38.5417 24.5844 38.5417 23.9594Z" fill="#BDBDBD"/>
<path d="M35.4167 40.751L28.1917 33.5271L30.4021 31.3167L35.4167 36.3323L46.6812 25.0667L48.8917 27.2771L35.4167 40.751Z" fill="#4CAF50"/>
</svg>
