<svg width="50" height="50" viewBox="0 0 50 50" fill="none" xmlns="http://www.w3.org/2000/svg">
<path d="M37.5 4.16666H27.0833C27.0833 5.3177 26.151 6.24999 25 6.24999C23.849 6.24999 22.9167 5.3177 22.9167 4.16666H12.5C10.1969 4.16666 8.33334 6.0302 8.33334 8.33332V41.6667C8.33334 43.9698 10.1969 45.8333 12.5 45.8333H37.5C39.8031 45.8333 41.6667 43.9698 41.6667 41.6667V8.33332C41.6667 6.0302 39.8031 4.16666 37.5 4.16666Z" fill="#455A64"/>
<path d="M37.5 42.7083H12.5C11.926 42.7083 11.4583 42.2406 11.4583 41.6667V8.33332C11.4583 7.75936 11.926 7.29166 12.5 7.29166H37.5C38.074 7.29166 38.5417 7.75936 38.5417 8.33332V41.6667C38.5417 42.2406 38.074 42.7083 37.5 42.7083Z" fill="white"/>
<path d="M27.0833 4.16666C27.0833 5.3177 26.151 6.24999 25 6.24999C23.849 6.24999 22.9167 5.3177 22.9167 4.16666H15.625V8.33332C15.625 9.48436 16.5573 10.4167 17.7083 10.4167H32.2917C33.4427 10.4167 34.375 9.48436 34.375 8.33332V4.16666H27.0833Z" fill="#90A4AE"/>
<path d="M25 0C22.701 0 20.8333 1.86771 20.8333 4.16667C20.8333 6.46562 22.701 8.33333 25 8.33333C27.299 8.33333 29.1667 6.46562 29.1667 4.16667C29.1667 1.86771 27.299 0 25 0ZM25 6.25C23.849 6.25 22.9167 5.31771 22.9167 4.16667C22.9167 3.01562 23.849 2.08333 25 2.08333C26.151 2.08333 27.0833 3.01562 27.0833 4.16667C27.0833 5.31771 26.151 6.25 25 6.25Z" fill="#90A4AE"/>
<path d="M15.625 15.625H32.2917V18.75H15.625V15.625ZM15.625 22.9167H32.2917V25H15.625V22.9167ZM15.625 27.0833H28.125V29.1667H15.625V27.0833ZM15.625 31.25H32.2917V33.3333H15.625V31.25ZM15.625 35.4167H28.125V37.5H15.625V35.4167Z" fill="#03A9F4"/>
</svg>
