<svg width="51" height="50" viewBox="0 0 51 50" fill="none" xmlns="http://www.w3.org/2000/svg">
<path d="M38 6.25H27.5833C27.5833 7.39896 26.649 8.33333 25.5 8.33333C24.35 8.33333 23.4167 7.39896 23.4167 6.25H13C10.699 6.25 8.83334 8.11458 8.83334 10.4167V43.75C8.83334 46.0479 10.699 47.9167 13 47.9167H38C40.3011 47.9167 42.1667 46.0479 42.1667 43.75V10.4167C42.1667 8.11458 40.3011 6.25 38 6.25Z" fill="#FFCC80"/>
<path d="M38 44.7917H13C12.425 44.7917 11.9583 44.324 11.9583 43.75V10.4167C11.9583 9.84271 12.425 9.375 13 9.375H38C38.575 9.375 39.0417 9.84271 39.0417 10.4167V43.75C39.0417 44.324 38.575 44.7917 38 44.7917Z" fill="#41A571"/>
<path d="M27.5833 6.25C27.5833 7.39896 26.65 8.33333 25.5 8.33333C24.349 8.33333 23.4167 7.39896 23.4167 6.25H16.125V10.4167C16.125 11.5687 17.0563 12.5 18.2083 12.5H32.7917C33.9417 12.5 34.875 11.5687 34.875 10.4167V6.25H27.5833Z" fill="#90A4AE"/>
<path d="M25.5 2.08334C23.2021 2.08334 21.3333 3.94793 21.3333 6.25001C21.3333 8.54793 23.2021 10.4167 25.5 10.4167C27.7979 10.4167 29.6667 8.54793 29.6667 6.25001C29.6667 3.94793 27.7979 2.08334 25.5 2.08334ZM25.5 8.33334C24.35 8.33334 23.4167 7.39897 23.4167 6.25001C23.4167 5.10105 24.35 4.16668 25.5 4.16668C26.649 4.16668 27.5833 5.10105 27.5833 6.25001C27.5833 7.39897 26.649 8.33334 25.5 8.33334Z" fill="#90A4AE"/>
<path d="M18.2083 30.2083C17.6558 30.2083 17.1259 30.4278 16.7352 30.8185C16.3445 31.2092 16.125 31.7391 16.125 32.2917C16.125 32.8442 16.3445 33.3741 16.7352 33.7648C17.1259 34.1555 17.6558 34.375 18.2083 34.375C18.7609 34.375 19.2908 34.1555 19.6815 33.7648C20.0722 33.3741 20.2917 32.8442 20.2917 32.2917C20.2917 31.7391 20.0722 31.2092 19.6815 30.8185C19.2908 30.4278 18.7609 30.2083 18.2083 30.2083ZM28.625 37.5C28.0725 37.5 27.5426 37.7195 27.1519 38.1102C26.7612 38.5009 26.5417 39.0308 26.5417 39.5833C26.5417 40.1359 26.7612 40.6658 27.1519 41.0565C27.5426 41.4472 28.0725 41.6667 28.625 41.6667C29.1775 41.6667 29.7074 41.4472 30.0981 41.0565C30.4888 40.6658 30.7083 40.1359 30.7083 39.5833C30.7083 39.0308 30.4888 38.5009 30.0981 38.1102C29.7074 37.7195 29.1775 37.5 28.625 37.5ZM29.6667 20.8333C29.1141 20.8333 28.5842 21.0528 28.1935 21.4435C27.8028 21.8342 27.5833 22.3641 27.5833 22.9167C27.5833 23.4692 27.8028 23.9991 28.1935 24.3898C28.5842 24.7805 29.1141 25 29.6667 25C30.2192 25 30.7491 24.7805 31.1398 24.3898C31.5305 23.9991 31.75 23.4692 31.75 22.9167C31.75 22.3641 31.5305 21.8342 31.1398 21.4435C30.7491 21.0528 30.2192 20.8333 29.6667 20.8333Z" fill="white"/>
<path d="M19.8495 18.7608L21.3226 20.234L16.5679 24.9884L15.0948 23.5153L19.8495 18.7608Z" fill="white"/>
<path d="M21.3226 23.516L19.8495 24.9892L15.0948 20.2347L16.5679 18.7615L21.3226 23.516Z" fill="white"/>
<path d="M34.4328 28.1358L35.9059 29.609L31.1513 34.3634L29.6782 32.8903L34.4328 28.1358Z" fill="white"/>
<path d="M35.9059 32.891L34.4328 34.3642L29.6782 29.6097L31.1513 28.1365L35.9059 32.891Z" fill="white"/>
<path d="M26.5936 24.0882L27.9132 25.7016L21.2861 31.1219L19.9664 29.5084L26.5936 24.0882Z" fill="white"/>
<path d="M21.3678 33.2324L26.6728 36.9449L25.4783 38.6518L20.1733 34.9392L21.3678 33.2324Z" fill="white"/>
<path d="M27.5833 18.75H31.75L29.6667 15.625L27.5833 18.75Z" fill="white"/>
<path d="M34.875 9.375V10.4167C34.875 11.5677 33.9417 12.5 32.7917 12.5H18.2083C17.0573 12.5 16.125 11.5677 16.125 10.4167V9.375H14.0417V10.4167C14.0417 12.7146 15.9104 14.5833 18.2083 14.5833H32.7917C35.0896 14.5833 36.9583 12.7146 36.9583 10.4167V9.375H34.875Z" fill="#398E5F"/>
<path d="M14.0417 6.25H16.125V9.375H14.0417V6.25ZM34.875 6.25H36.9583V9.375H34.875V6.25Z" fill="#FFB74D"/>
</svg>
