<svg width="70" height="71" viewBox="0 0 70 71" fill="none" xmlns="http://www.w3.org/2000/svg">
<path opacity="0.05" d="M52.1923 38.7902C52.7406 38.064 52.5335 37.0227 51.7489 36.5619L48.4137 34.6034C47.8275 34.2592 47.5402 33.5679 47.7123 32.9088L48.6864 29.1667C48.9154 28.2859 48.3248 27.4036 47.4235 27.2782L43.5939 26.7459C42.9202 26.6525 42.3908 26.1232 42.2975 25.4494L41.7652 21.6198C41.6398 20.7186 40.756 20.1279 39.8767 20.3569L36.1346 21.3311C35.4769 21.5017 34.7842 21.2159 34.44 20.6296L32.4814 17.2944C32.0206 16.5098 30.9794 16.3027 30.2531 16.8511L27.1687 19.1829C26.6262 19.5927 25.8781 19.5927 25.3342 19.1829L22.6917 17.1865C18.5777 21.6096 16.0417 27.5232 16.0417 34.0419C16.0417 47.7342 27.141 58.8336 40.8333 58.8336C43.5137 58.8336 46.0848 58.3873 48.4983 57.594C48.7083 57.2542 48.7944 56.8371 48.685 56.4171L47.7108 52.675C47.5402 52.0173 47.826 51.3246 48.4123 50.9804L51.7475 49.0219C52.5321 48.5611 52.7392 47.5198 52.1908 46.7936L49.8589 43.7092C49.4492 43.1667 49.4492 42.4186 49.8589 41.8746L52.1923 38.7902Z" fill="#0363EB"/>
<path opacity="0.1" d="M51.3508 38.9196C51.8817 38.2166 51.6819 37.2089 50.9221 36.7641L47.6948 34.8698C47.1275 34.5373 46.8504 33.8679 47.0152 33.2306L47.9573 29.6096C48.1789 28.7579 47.6073 27.9033 46.7367 27.7823L43.031 27.2675C42.3792 27.1771 41.8673 26.6652 41.7769 26.0133L41.2621 22.3077C41.141 21.4356 40.2864 20.8654 39.4348 21.0871L35.8137 22.0291C35.1764 22.1954 34.5071 21.9168 34.1746 21.3496L32.2802 18.1223C31.8339 17.3625 30.8262 17.1627 30.1248 17.6935L27.1396 19.9496C26.6146 20.3462 25.8898 20.3462 25.3648 19.9496L22.3796 17.6935C22.3475 17.6702 22.3096 17.6673 22.276 17.6454C18.4085 22.0146 16.0417 27.7458 16.0417 34.0414C16.0417 47.7337 27.141 58.8331 40.8333 58.8331C41.2781 58.8331 41.7185 58.8083 42.1575 58.785C42.3835 58.54 42.6839 58.3664 43.031 58.3183L46.7367 57.8035C47.6087 57.6825 48.1789 56.8279 47.9573 55.9762L47.0152 52.3552C46.8489 51.7179 47.1275 51.0485 47.6948 50.716L50.9221 48.8216C51.6819 48.3754 51.8817 47.3677 51.3508 46.6662L49.0948 43.681C48.6981 43.156 48.6981 42.4312 49.0948 41.9062L51.3508 38.9196Z" fill="#0363EB"/>
<path opacity="0.2" d="M50.5108 39.0494C51.0242 38.3713 50.8302 37.3957 50.0967 36.9655L46.9773 35.1338C46.4289 34.8115 46.1606 34.1655 46.321 33.5501L47.231 30.0501C47.4454 29.2261 46.8927 28.4007 46.0512 28.284L42.4696 27.7853C41.8396 27.6978 41.3452 27.2019 41.2562 26.5719L40.7575 22.9903C40.6408 22.1473 39.8139 21.5961 38.9914 21.8105L35.4914 22.7205C34.876 22.8809 34.2285 22.6126 33.9077 22.0642L32.076 18.9448C31.6458 18.2113 30.6702 18.0173 29.9921 18.5307L27.1075 20.7109C26.6 21.0944 25.9 21.0944 25.3925 20.7109L22.5079 18.5307C22.2644 18.3469 21.9829 18.2828 21.7014 18.274C18.165 22.5586 16.0417 28.0521 16.0417 34.0415C16.0417 47.7338 27.141 58.8332 40.8333 58.8332C40.9967 58.8332 41.1556 58.8186 41.3175 58.8157C41.4721 58.2848 41.9096 57.8765 42.4696 57.7978L46.0512 57.299C46.8942 57.1823 47.4454 56.3555 47.231 55.533L46.321 52.033C46.1606 51.4176 46.4289 50.7701 46.9773 50.4492L50.0967 48.6175C50.8302 48.1873 51.0242 47.2117 50.5108 46.5336L48.3306 43.649C47.9471 43.1415 47.9471 42.4415 48.3306 41.934L50.5108 39.0494Z" fill="#0363EB"/>
<path opacity="0.3" d="M49.6708 39.1792C50.1667 38.5244 49.9785 37.5838 49.2712 37.1682L46.2612 35.4007C45.7319 35.0901 45.4737 34.4659 45.6283 33.8709L46.5077 30.4919C46.7148 29.6972 46.181 28.8994 45.3687 28.7872L41.911 28.3059C41.3029 28.2213 40.8246 27.743 40.74 27.1349L40.2587 23.6772C40.145 22.8634 39.3487 22.3311 38.5539 22.5382L35.175 23.4176C34.5814 23.5722 33.9558 23.314 33.6452 22.7847L31.8777 19.7747C31.4621 19.0659 30.5214 18.8792 29.8667 19.3751L27.0812 21.4794C26.5912 21.8499 25.916 21.8499 25.426 21.4794L22.6406 19.3751C21.9858 18.8792 21.0452 19.0674 20.6296 19.7747L18.8621 22.7847C18.8023 22.8867 18.7221 22.9684 18.6419 23.0486C16.991 26.3634 16.0417 30.088 16.0417 34.0415C16.0417 47.6828 27.0623 58.7442 40.6846 58.8259L40.7371 58.4497C40.8217 57.8415 41.3 57.3632 41.9081 57.2786L45.3658 56.7974C46.1796 56.6836 46.7119 55.8874 46.5048 55.0926L45.6254 51.7136C45.4708 51.1201 45.7289 50.4944 46.2583 50.1838L49.2683 48.4163C49.9771 48.0007 50.1637 47.0601 49.6679 46.4053L47.5635 43.6199C47.1931 43.1299 47.1931 42.4547 47.5635 41.9647L49.6708 39.1792Z" fill="#0363EB"/>
<path opacity="0.4" d="M48.8294 39.3094C49.3062 38.6779 49.1269 37.7708 48.4429 37.3698L45.5408 35.665C45.0304 35.3646 44.781 34.7637 44.9298 34.1906L45.7771 30.9327C45.9769 30.1656 45.4621 29.3971 44.6789 29.2892L41.3452 28.8254C40.7589 28.7437 40.2981 28.2829 40.2164 27.6967L39.7527 24.3629C39.6433 23.5783 38.8748 23.065 38.1092 23.2648L34.8512 24.1121C34.2781 24.2608 33.6758 24.0115 33.3769 23.501L31.6721 20.599C31.271 19.9165 30.3639 19.7356 29.7325 20.2125L27.0477 22.2425C26.5752 22.5998 25.9233 22.5998 25.4523 22.2425L22.7675 20.2125C22.136 19.7356 21.2289 19.915 20.8279 20.599L19.1231 23.501C18.9044 23.8744 18.5223 24.1033 18.1096 24.1442C16.7854 27.1775 16.0417 30.5215 16.0417 34.0419C16.0417 47.4833 26.7444 58.3989 40.0896 58.7956L40.2164 57.8871C40.2981 57.3008 40.7589 56.84 41.3452 56.7583L44.6789 56.2946C45.4635 56.1852 45.9769 55.4167 45.7771 54.651L44.9298 51.3931C44.781 50.82 45.0304 50.2177 45.5408 49.9187L48.4429 48.2139C49.1254 47.8129 49.3062 46.9058 48.8294 46.2744L46.7994 43.5896C46.4421 43.1171 46.4421 42.4652 46.7994 41.9942L48.8294 39.3094Z" fill="#0363EB"/>
<path opacity="0.5" d="M47.9879 39.4373C48.4473 38.8292 48.2737 37.9557 47.616 37.5707L44.8219 35.93C44.3304 35.6413 44.0898 35.0623 44.2342 34.5096L45.0508 31.3727C45.2433 30.6348 44.7475 29.8954 43.9935 29.7904L40.7837 29.3442C40.2194 29.2654 39.776 28.8221 39.6973 28.2577L39.251 25.0479C39.146 24.2925 38.4052 23.7982 37.6687 23.9907L34.5319 24.8073C33.9806 24.9502 33.4002 24.7111 33.1114 24.2196L31.4708 21.4254C31.0844 20.7677 30.2123 20.5942 29.6042 21.0536L27.0185 23.0077C26.5635 23.3519 25.9364 23.3519 25.4814 23.0077L22.8958 21.0536C22.2877 20.5942 21.4142 20.7677 21.0292 21.4254L19.3885 24.2196C19.0998 24.7111 18.5208 24.9517 17.9681 24.8073L17.8485 24.7767C16.6935 27.6409 16.0417 30.7632 16.0417 34.0415C16.0417 47.2817 26.4294 58.0675 39.496 58.7661L39.6958 57.3252C39.7746 56.7609 40.2179 56.3175 40.7823 56.2388L43.9921 55.7925C44.7475 55.6875 45.2419 54.9467 45.0494 54.2102L44.2327 51.0734C44.0898 50.5221 44.3289 49.9417 44.8204 49.6529L47.6146 48.0123C48.2723 47.6259 48.4458 46.7538 47.9864 46.1456L46.0323 43.56C45.6881 43.105 45.6881 42.4779 46.0323 42.0229L47.9879 39.4373Z" fill="#0363EB"/>
<path opacity="0.6" d="M39.1767 28.8207L38.7479 25.7348C38.6473 25.0086 37.9356 24.5332 37.2269 24.7184L34.2125 25.5029C33.6817 25.6415 33.1246 25.4096 32.8475 24.9371L31.271 22.2509C30.9006 21.6194 30.0606 21.4517 29.4758 21.8936L26.9908 23.7719C26.5533 24.1029 25.951 24.1029 25.5135 23.7719L23.0285 21.8936C22.4437 21.4517 21.6052 21.6179 21.2333 22.2509L19.6554 24.9371C19.3783 25.4096 18.8212 25.64 18.2904 25.5029L17.6458 25.3352C16.625 28.0477 16.0417 30.9732 16.0417 34.0415C16.0417 47.0819 26.1158 57.7467 38.9025 58.7354L39.1767 56.7623C39.2525 56.2198 39.6783 55.7925 40.2208 55.7181L43.3067 55.2894C44.0329 55.1888 44.5083 54.4771 44.3231 53.7669L43.5385 50.7525C43.4 50.2217 43.6319 49.6646 44.1044 49.3875L46.7906 47.8096C47.4221 47.4392 47.5898 46.5992 47.1479 46.0144L45.2696 43.5294C44.9385 43.0919 44.9385 42.4896 45.2696 42.0521L47.1479 39.5671C47.5898 38.9823 47.4235 38.1438 46.7906 37.7719L44.1044 36.1954C43.6319 35.9184 43.4014 35.3613 43.5385 34.8304L44.3231 31.8161C44.5083 31.1073 44.0329 30.3957 43.3067 30.295L40.2208 29.8663C39.6783 29.789 39.2525 29.3632 39.1767 28.8207Z" fill="#0363EB"/>
<path opacity="0.8" d="M25.5121 23.7719L23.0271 21.8936C22.4423 21.4517 21.6037 21.6179 21.2319 22.2509L19.6539 24.9371C19.3769 25.4096 18.8198 25.64 18.2889 25.5029L17.6254 25.3309C16.6075 28.0404 16.0417 30.9732 16.0417 34.0415C16.0417 47.0819 26.1158 57.7467 38.9025 58.7354L39.1767 56.7623C39.2525 56.2198 39.6783 55.7925 40.2208 55.7181L43.3067 55.2894C44.0329 55.1888 44.5083 54.4771 44.3231 53.7669L43.5385 50.7525C43.4 50.2217 43.6319 49.6646 44.1044 49.3875L46.7906 47.8096C47.4221 47.4392 47.5898 46.5992 47.1479 46.0144L45.2696 43.5294C44.9385 43.0919 44.9385 42.4896 45.2696 42.0521L47.1479 39.5671C47.5898 38.9823 47.4235 38.1438 46.7906 37.7719L44.1044 36.1954C43.6319 35.9184 43.4014 35.3613 43.5385 34.8304L44.3231 31.8161C44.5083 31.1073 44.0329 30.3957 43.3067 30.295L40.2208 29.8663C39.6783 29.7904 39.251 29.3646 39.1767 28.8221L38.7479 25.7363C38.6473 25.01 37.9356 24.5346 37.2269 24.7198L34.2125 25.5044C33.6817 25.6429 33.1246 25.4111 32.8475 24.9386L31.271 22.2523C30.9006 21.6209 30.0606 21.4532 29.4758 21.895L26.9908 23.7734C26.5519 24.1029 25.9481 24.1029 25.5121 23.7719Z" fill="#005BC9"/>
<path d="M26.9879 23.7719L29.4729 21.8936C30.0577 21.4517 30.8963 21.6179 31.2681 22.2509L32.8461 24.9371C33.1231 25.4096 33.6802 25.64 34.2111 25.5029L37.2254 24.7184C37.9342 24.5332 38.6458 25.0086 38.7465 25.7348L39.1752 28.8207C39.251 29.3632 39.6769 29.7904 40.2194 29.8648L43.3052 30.2936C44.0315 30.3942 44.5069 31.1059 44.3217 31.8146L43.5371 34.829C43.3985 35.3598 43.6304 35.9169 44.1029 36.194L46.7892 37.7719C47.4206 38.1423 47.5883 38.9823 47.1465 39.5671L45.2681 42.0521C44.9385 42.4896 44.9385 43.0919 45.2681 43.5294L47.1465 46.0144C47.5883 46.5992 47.4221 47.4377 46.7892 47.8096L44.1029 49.3875C43.6304 49.6646 43.4 50.2217 43.5371 50.7525L44.3217 53.7669C44.5069 54.4757 44.0315 55.1873 43.3052 55.2879L40.2194 55.7167C39.6769 55.7925 39.2496 56.2184 39.1752 56.7609L38.7465 59.8467C38.6458 60.5729 37.9342 61.0484 37.2254 60.8631L34.2111 60.0786C33.6802 59.94 33.1231 60.1719 32.8461 60.6444L31.2681 63.3306C30.8977 63.9621 30.0577 64.1298 29.4729 63.6879L26.9879 61.8096C26.5504 61.48 25.9481 61.48 25.5106 61.8096L23.0256 63.6879C22.4408 64.1298 21.6023 63.9636 21.2304 63.3306L19.6525 60.6444C19.3754 60.1719 18.8183 59.9415 18.2875 60.0786L15.2731 60.8631C14.5644 61.0498 13.8542 60.5744 13.7521 59.8481L13.3233 56.7623C13.2475 56.2198 12.8217 55.7925 12.2792 55.7181L9.19334 55.2894C8.46709 55.1873 7.99168 54.4771 8.17689 53.7669L8.96147 50.7525C9.10001 50.2217 8.86814 49.6646 8.39564 49.3875L5.70939 47.8096C5.07793 47.4392 4.91022 46.5992 5.35209 46.0144L7.23043 43.5294C7.56001 43.0919 7.56001 42.4896 7.23043 42.0521L5.35209 39.5671C4.91022 38.9823 5.07647 38.1438 5.70939 37.7719L8.39564 36.194C8.86814 35.9169 9.09855 35.3598 8.96147 34.829L8.17689 31.8146C7.99168 31.1059 8.46709 30.3957 9.19334 30.2936L12.2792 29.8648C12.8217 29.789 13.249 29.3632 13.3233 28.8207L13.7521 25.7348C13.8527 25.0086 14.5644 24.5332 15.2731 24.7184L18.2875 25.5029C18.8183 25.6415 19.3754 25.4096 19.6525 24.9371L21.2304 22.2509C21.6008 21.6194 22.4408 21.4517 23.0256 21.8936L25.5106 23.7719C25.9481 24.1029 26.5519 24.1029 26.9879 23.7719Z" fill="url(#paint0_linear_25_1665)"/>
<path d="M32.1198 61.8825L32.846 60.6459C33.1231 60.1734 33.6802 59.9429 34.211 60.08L37.2254 60.8646C37.9342 61.0498 38.6458 60.5744 38.7464 59.8482L39.1752 56.7623C39.251 56.2198 39.6769 55.7925 40.2194 55.7182L43.3052 55.2894C44.0314 55.1888 44.5069 54.4771 44.3217 53.7669L43.5371 50.7525C43.3985 50.2217 43.6304 49.6646 44.1029 49.3875L46.7892 47.8096C47.4206 47.4392 47.5883 46.5992 47.1464 46.0144L45.2681 43.5294C44.9371 43.0919 44.9371 42.4896 45.2681 42.0521L47.1464 39.5671C47.5883 38.9823 47.4221 38.1438 46.7892 37.7719L44.1029 36.1954C43.6304 35.9184 43.4 35.3613 43.5371 34.8305L44.3217 31.8161C44.5069 31.1073 44.0314 30.3957 43.3052 30.295L40.2194 29.8663C39.6769 29.7904 39.2496 29.3646 39.1752 28.8221L38.7464 25.7363C38.6458 25.01 37.9342 24.5346 37.2254 24.7198L34.211 25.5044C33.6802 25.6429 33.1231 25.4111 32.846 24.9386L31.2696 22.2523C30.8992 21.6209 30.0592 21.4532 29.4744 21.895L26.9894 23.7734C26.5519 24.1044 25.9496 24.1044 25.5121 23.7734L23.0271 21.895C22.4423 21.4532 21.6037 21.6194 21.2319 22.2523L19.6539 24.9386C19.3769 25.4111 18.8198 25.6415 18.2889 25.5044L15.2746 24.7198C14.5644 24.5332 13.8542 25.0086 13.7521 25.7348L13.3233 28.8207C13.2475 29.3632 12.8217 29.7904 12.2792 29.8648L11.9933 29.9042C11.8008 31.259 11.6667 32.6327 11.6667 34.0415C11.6667 47.114 20.2679 58.1769 32.1198 61.8825Z" fill="url(#paint1_radial_25_1665)"/>
<path d="M47.1479 39.5671C47.5898 38.9823 47.4235 38.1438 46.7906 37.7719L44.1044 36.1954C43.6319 35.9184 43.4014 35.3613 43.5385 34.8304L44.3231 31.8161C44.5083 31.1073 44.0329 30.3957 43.3067 30.295L40.2208 29.8663C39.6783 29.7904 39.251 29.3646 39.1767 28.8221L38.7479 25.7363C38.6473 25.01 37.9356 24.5346 37.2269 24.7198L34.2125 25.5044C33.6817 25.6429 33.1246 25.4111 32.8475 24.9386L31.271 22.2523C30.9006 21.6209 30.0606 21.4532 29.4758 21.895L26.9908 23.7734C26.5533 24.1044 25.951 24.1044 25.5135 23.7734L23.0285 21.895C22.4437 21.4532 21.6052 21.6194 21.2333 22.2523L19.6554 24.9386C19.3783 25.4111 18.8212 25.6415 18.2904 25.5044L17.6458 25.3367C16.625 28.0477 16.0417 30.9732 16.0417 34.0415C16.0417 47.0819 26.1158 57.7467 38.9025 58.7354L39.1767 56.7623C39.2525 56.2198 39.6783 55.7925 40.2208 55.7182L43.3067 55.2894C44.0329 55.1888 44.5083 54.4771 44.3231 53.7669L43.5385 50.7525C43.4 50.2217 43.6319 49.6646 44.1044 49.3875L46.7906 47.8096C47.4221 47.4392 47.5898 46.5992 47.1479 46.0144L45.2696 43.5294C44.9385 43.0919 44.9385 42.4896 45.2696 42.0521L47.1479 39.5671Z" fill="#0262EB"/>
<path d="M40.8333 9.25C27.141 9.25 16.0417 20.3494 16.0417 34.0417C16.0417 47.734 27.141 58.8333 40.8333 58.8333C54.5256 58.8333 65.625 47.734 65.625 34.0417C65.625 20.3494 54.5256 9.25 40.8333 9.25Z" fill="url(#paint2_linear_25_1665)"/>
<path d="M40.8333 9.86979C54.161 9.86979 65.0052 20.714 65.0052 34.0417C65.0052 47.3694 54.161 58.2135 40.8333 58.2135C27.5056 58.2135 16.6614 47.3694 16.6614 34.0417C16.6614 20.714 27.5056 9.86979 40.8333 9.86979ZM40.8333 9.25C27.141 9.25 16.0417 20.3494 16.0417 34.0417C16.0417 47.734 27.141 58.8333 40.8333 58.8333C54.5256 58.8333 65.625 47.734 65.625 34.0417C65.625 20.3494 54.5256 9.25 40.8333 9.25Z" fill="url(#paint3_linear_25_1665)"/>
<path opacity="0.05" d="M53.5631 19.3897C52.4067 18.2697 50.556 18.3017 49.4375 19.4538L40.7808 28.3861C37.1262 27.4557 33.5417 30.2397 33.5417 34.0415C33.5417 37.9105 37.2546 40.7236 40.9719 39.6401L47.075 44.7617C48.4137 45.8861 50.4671 45.7753 51.6542 44.3622C52.8077 42.987 52.6312 40.938 51.2531 39.7845L45.1689 34.6774C45.2696 33.8374 45.1631 33.079 44.975 32.4432L53.6273 23.5153C54.7473 22.3574 54.721 20.514 53.5631 19.3897Z" fill="#0161EB"/>
<path opacity="0.1" d="M53.3079 19.6523C52.6721 19.0368 51.784 18.8414 51.014 19.0602C50.5298 19.1171 49.7598 19.645 49.3967 20.0212L40.9806 28.7056C40.8129 28.6633 40.5475 28.7333 40.3813 28.71C37.0796 28.0275 33.9062 30.5898 33.9062 34.0416C33.9062 37.7268 37.5083 40.3941 41.0433 39.2246L46.9831 44.2091C47.3623 44.5271 48.144 44.9879 48.6121 45.0389C49.5731 45.2825 50.6625 44.9777 51.3756 44.1275C52.0392 43.3356 52.1792 42.2783 51.835 41.4077C51.7242 40.9002 51.0563 40.0923 50.626 39.7335L45.1894 35.1704C45.1952 35.1485 44.7942 34.7416 44.8058 34.6629C44.9006 33.9089 44.8219 33.155 44.5988 32.4637C44.5856 32.4302 44.8029 32.1546 44.7854 32.1181L53.0133 23.6277C53.4085 23.2193 53.9685 22.3327 53.9846 21.8062C54.1392 21.0668 53.9131 20.2385 53.3079 19.6523Z" fill="#0161EB"/>
<path opacity="0.15" d="M53.0541 19.9134C52.4373 19.3155 51.5375 19.1915 50.8375 19.5299C50.5152 19.5678 49.5979 20.3363 49.3558 20.5857L41.1789 29.0222C41.0666 28.9945 40.7575 29.1767 40.6466 29.1622C37.4558 28.2551 34.2708 30.7051 34.2708 34.0417C34.2708 37.5432 37.7635 40.0661 41.1133 38.8076L46.8898 43.6551C47.1421 43.8665 48.0987 44.5388 48.4108 44.5738C49.3048 44.9486 50.4073 44.7109 51.0941 43.8928C51.7489 43.1126 51.8087 42.0319 51.326 41.2386C51.2516 40.9003 50.2804 39.9217 49.9946 39.6811L44.6454 35.1909C44.6585 35.1457 44.415 34.803 44.4369 34.6455C44.5244 33.9761 44.4762 33.228 44.2166 32.4813C44.1904 32.4128 44.3144 32.1824 44.2794 32.1109L52.3935 23.7386C52.6575 23.4659 53.5019 22.3882 53.5121 22.0367C53.8052 21.3513 53.6506 20.4909 53.0541 19.9134Z" fill="#0161EB"/>
<path opacity="0.2" d="M52.8004 20.1758C52.8004 20.1743 52.8004 20.1743 52.8004 20.1758C52.2025 19.5968 51.291 19.5414 50.661 19.9993C50.4992 20.0183 49.436 21.0274 49.315 21.1514L41.3787 29.3399C41.3233 29.3253 40.9704 29.6214 40.915 29.6141C37.8321 28.4839 34.6354 30.8216 34.6354 34.0416C34.6354 37.3593 38.0173 39.7364 41.1848 38.3918L46.7979 43.1008C46.9248 43.2072 48.0564 44.091 48.2125 44.1085C49.0379 44.6145 50.1535 44.4453 50.8156 43.6578C51.4602 42.8893 51.4412 41.7839 50.8214 41.0693C50.785 40.9001 49.5104 39.7495 49.3675 39.6285L44.1058 35.2126C44.1248 35.1456 44.0387 34.8656 44.0737 34.6279C44.1539 34.0445 44.135 33.3008 43.8404 32.4987C43.801 32.3966 43.8331 32.2114 43.7792 32.1035L51.7796 23.8479C51.9108 23.7122 53.0425 22.442 53.0469 22.267C53.4727 21.6356 53.3881 20.7445 52.8004 20.1758Z" fill="#0161EB"/>
<path opacity="0.4" d="M52.5467 20.4366C51.9677 19.8766 51.0446 19.8912 50.4846 20.4687L41.1819 30.0674C38.2083 28.7112 35 30.938 35 34.0414C35 37.1753 38.271 39.4066 41.2563 37.976L48.0127 43.6445C48.771 44.2803 49.8998 44.1812 50.5356 43.4243C51.1715 42.666 51.0723 41.5372 50.3154 40.9014L43.5648 35.2372C43.6362 34.9864 44.0767 33.703 43.276 32.1003L52.5802 22.5001C53.1402 21.9197 53.1256 20.9966 52.5467 20.4366Z" fill="#0161EB"/>
<path d="M52.5467 20.4371C51.9677 19.8771 51.0446 19.8917 50.4846 20.4692L41.1819 30.0679C40.6306 29.8156 40.021 29.6669 39.375 29.6669C36.9585 29.6669 35 31.6254 35 34.0419C35 36.4583 36.9585 38.4169 39.375 38.4169C40.0517 38.4169 40.6846 38.2506 41.2563 37.9764L48.0127 43.645C48.771 44.2808 49.8998 44.1817 50.5356 43.4248C51.1715 42.6664 51.0723 41.5377 50.3154 40.9019L43.5648 35.2377C43.6727 34.8541 43.75 34.4589 43.75 34.0419C43.75 33.3404 43.5692 32.6871 43.276 32.0994L52.5802 22.4992C53.1402 21.9202 53.1256 20.9971 52.5467 20.4371ZM39.375 35.5002C38.57 35.5002 37.9167 34.8469 37.9167 34.0419C37.9167 33.2369 38.57 32.5835 39.375 32.5835C40.18 32.5835 40.8333 33.2369 40.8333 34.0419C40.8333 34.8469 40.18 35.5002 39.375 35.5002Z" fill="white"/>
<defs>
<linearGradient id="paint0_linear_25_1665" x1="26.25" y1="68.5938" x2="26.25" y2="14.4007" gradientUnits="userSpaceOnUse">
<stop stop-color="#009CFC"/>
<stop offset="0.12" stop-color="#18ABFC"/>
<stop offset="0.416" stop-color="#4ECCFE"/>
<stop offset="0.672" stop-color="#76E4FE"/>
<stop offset="0.875" stop-color="#8EF3FF"/>
<stop offset="1" stop-color="#97F8FF"/>
</linearGradient>
<radialGradient id="paint1_radial_25_1665" cx="0" cy="0" r="1" gradientUnits="userSpaceOnUse" gradientTransform="translate(42.1808 33.2044) scale(30.3377)">
<stop offset="0.8" stop-color="#0262EB"/>
<stop offset="1" stop-color="#0666FD" stop-opacity="0"/>
</radialGradient>
<linearGradient id="paint2_linear_25_1665" x1="11.4814" y1="51.6933" x2="48.825" y2="29.2365" gradientUnits="userSpaceOnUse">
<stop stop-color="#CCFBFF" stop-opacity="0.4"/>
<stop offset="1" stop-color="#DAA6FF" stop-opacity="0.5"/>
</linearGradient>
<linearGradient id="paint3_linear_25_1665" x1="11.6244" y1="54.3854" x2="52.3148" y2="26.0442" gradientUnits="userSpaceOnUse">
<stop stop-color="white" stop-opacity="0.2"/>
<stop offset="1" stop-color="#1676EE" stop-opacity="0.2"/>
</linearGradient>
</defs>
</svg>
