<svg width="96" height="96" viewBox="0 0 96 96" fill="none" xmlns="http://www.w3.org/2000/svg">
<path opacity="0.1" d="M76 14C76 14 73.46 32.18 72 38C70 46 64.46 52.44 62.62 53.66C62.3 53.88 61.9 54 61.5 54H13.6V44.86C14.16 43.68 14.7 42.34 15.2 40.82C15.48 39.94 15.76 39 16 38C16.24 37.02 16.52 35.7 16.8 34.16C17.32 31.38 17.9 27.94 18.4 24.7C19.3 19.06 20 14 20 14H76Z" fill="#904AFF"/>
<path opacity="0.2" d="M76 14C76 14 73.46 32.18 72 38C70 46 64.46 52.44 62.62 53.66C62.3 53.88 61.9 54 61.5 54H15.2V40.82C15.48 39.94 15.76 39 16 38C16.24 37.02 16.52 35.7 16.8 34.16C17.32 31.38 17.9 27.94 18.4 24.7C19.3 19.06 20 14 20 14H76Z" fill="#904AFF"/>
<path opacity="0.3" d="M76 14C76 14 73.46 32.18 72 38C70 46 64.46 52.44 62.62 53.66C62.3 53.88 61.9 54 61.5 54H16.8V34.16C17.32 31.38 17.9 27.94 18.4 24.7C19.3 19.06 20 14 20 14H76Z" fill="#904AFF"/>
<path opacity="0.4" d="M76 14C76 14 73.46 32.18 72 38C70 46 64.46 52.44 62.62 53.66C62.3 53.88 61.9 54 61.5 54H18.4V24.7C19.3 19.06 20 14 20 14H76Z" fill="#904AFF"/>
<path d="M80 11C80 9.344 78.656 8 77 8H19C17.344 8 16 9.344 16 11C16 12.656 17.344 14 19 14H20V64H19C17.344 64 16 65.344 16 67C16 68.656 17.344 70 19 70H77C78.656 70 80 68.656 80 67C80 65.344 78.656 64 77 64H76V14H77C78.656 14 80 12.656 80 11Z" fill="url(#paint0_linear_25_1971)"/>
<path opacity="0.05" d="M76 14V38.44C75.96 38.62 75.92 38.8 75.88 38.96C73.6 48.06 67.16 55.44 64.86 56.98C63.86 57.64 62.7 58 61.5 58H20V14H76Z" fill="#904AFF"/>
<path opacity="0.1" d="M76 14V34.52C75.68 36.22 75.38 37.7 75.1 38.78C72.88 47.66 66.64 54.82 64.42 56.32C63.54 56.9 62.54 57.2 61.5 57.2H20V14H76Z" fill="#904AFF"/>
<path opacity="0.2" d="M76 14V29.9C75.4 33.4 74.82 36.64 74.32 38.58C72.16 47.24 66.12 54.2 63.96 55.64C63.24 56.14 62.38 56.4 61.5 56.4H20V14H76Z" fill="#904AFF"/>
<path opacity="0.3" d="M76 14V24.8C75.2 29.94 74.26 35.54 73.56 38.38C71.44 46.84 65.6 53.6 63.52 54.98C62.92 55.38 62.22 55.6 61.5 55.6H20V14H76Z" fill="#904AFF"/>
<path opacity="0.4" d="M76 14V19.54C75.14 25.38 73.74 34.36 72.78 38.2C70.72 46.42 65.08 52.98 63.08 54.32C62.6 54.64 62.06 54.8 61.5 54.8H20V14H76Z" fill="#904AFF"/>
<path d="M76 14C76 14 73.456 32.18 72 38C70 46 64.456 52.432 62.63 53.656C62.294 53.88 61.908 54 61.504 54H8.99C8.084 54 7.664 52.904 8.314 52.272C10.682 49.974 14 46 16 38C17.456 32.18 20 14 20 14H76Z" fill="url(#paint1_linear_25_1971)"/>
<path d="M74.998 14L74.848 15C74.266 19.068 72.246 32.892 71.03 37.758C69.118 45.408 63.848 51.636 62.072 52.826C61.9 52.94 61.708 53 61.504 53L9.01201 52.99C11.434 50.638 14.892 46.552 16.97 38.242C18.256 33.096 20.34 18.716 20.868 15L21.04 14H20C20 14 17.456 32.18 16 38C14 46 10.682 49.974 8.31601 52.272C7.66601 52.904 8.08401 54 8.99001 54H61.504C61.908 54 62.294 53.88 62.63 53.656C64.456 52.432 70 46 72 38C73.456 32.18 76 14 76 14H74.998Z" fill="url(#paint2_linear_25_1971)"/>
<path d="M18.434 88C19.35 88 20.142 87.364 20.34 86.472L24 70H20L16.528 85.624C16.258 86.844 17.184 88 18.434 88Z" fill="url(#paint3_linear_25_1971)"/>
<path d="M77.566 88C78.816 88 79.742 86.844 79.472 85.624L76 70H72L75.66 86.472C75.858 87.364 76.652 88 77.566 88Z" fill="url(#paint4_linear_25_1971)"/>
<path d="M47.952 84H48.048C49.126 84 50 83.126 50 82.048V70H46V82.048C46 83.126 46.874 84 47.952 84Z" fill="url(#paint5_linear_25_1971)"/>
<path opacity="0.05" d="M76 14V18H19.42C19.46 17.72 19.5 17.46 19.54 17.2C19.58 16.92 19.62 16.66 19.66 16.4C19.7 16.12 19.74 15.84 19.78 15.6C19.82 15.28 19.86 15.02 19.88 14.8C19.96 14.28 20 14 20 14H76Z" fill="#904AFF"/>
<path opacity="0.1" d="M76 14V17.2H19.54C19.58 16.92 19.62 16.66 19.66 16.4C19.7 16.12 19.74 15.84 19.78 15.6C19.82 15.28 19.86 15.02 19.88 14.8C19.96 14.28 20 14 20 14H76Z" fill="#904AFF"/>
<path opacity="0.2" d="M76 14V16.4H19.66C19.7 16.12 19.74 15.84 19.78 15.6C19.82 15.28 19.86 15.02 19.88 14.8C19.96 14.28 20 14 20 14H76Z" fill="#904AFF"/>
<path opacity="0.3" d="M76 14V15.6H19.78C19.82 15.28 19.86 15.02 19.88 14.8C19.96 14.28 20 14 20 14H76Z" fill="#904AFF"/>
<path opacity="0.4" d="M76 14V14.8H19.88C19.96 14.28 20 14 20 14H76Z" fill="#904AFF"/>
<path d="M80 11C80 9.344 78.656 8 77 8H19C17.344 8 16 9.344 16 11C16 12.656 17.344 14 19 14H77C78.656 14 80 12.656 80 11Z" fill="url(#paint6_linear_25_1971)"/>
<path d="M16 67C16 68.656 17.344 70 19 70H77C78.656 70 80 68.656 80 67C80 65.344 78.656 64 77 64H19C17.344 64 16 65.344 16 67Z" fill="url(#paint7_linear_25_1971)"/>
<defs>
<linearGradient id="paint0_linear_25_1971" x1="48" y1="88.81" x2="48" y2="-3.31" gradientUnits="userSpaceOnUse">
<stop stop-color="#962AFF"/>
<stop offset="0.032" stop-color="#9931FF"/>
<stop offset="0.238" stop-color="#AA58FF"/>
<stop offset="0.442" stop-color="#B877FF"/>
<stop offset="0.64" stop-color="#C18DFF"/>
<stop offset="0.829" stop-color="#C79AFF"/>
<stop offset="1" stop-color="#C99FFF"/>
</linearGradient>
<linearGradient id="paint1_linear_25_1971" x1="42" y1="57.166" x2="42" y2="18.238" gradientUnits="userSpaceOnUse">
<stop stop-color="#4EAEFE" stop-opacity="0.2"/>
<stop offset="1" stop-color="#41A2FE" stop-opacity="0.4"/>
</linearGradient>
<linearGradient id="paint2_linear_25_1971" x1="42" y1="53.516" x2="42" y2="14.59" gradientUnits="userSpaceOnUse">
<stop stop-color="white" stop-opacity="0.2"/>
<stop offset="1" stop-color="#71B5FF" stop-opacity="0.4"/>
</linearGradient>
<linearGradient id="paint3_linear_25_1971" x1="20.24" y1="98.898" x2="20.24" y2="67.146" gradientUnits="userSpaceOnUse">
<stop stop-color="#C99FFF"/>
<stop offset="0.219" stop-color="#BE85FF"/>
<stop offset="1" stop-color="#962AFF"/>
</linearGradient>
<linearGradient id="paint4_linear_25_1971" x1="75.76" y1="98.898" x2="75.76" y2="67.146" gradientUnits="userSpaceOnUse">
<stop stop-color="#C99FFF"/>
<stop offset="0.219" stop-color="#BE85FF"/>
<stop offset="1" stop-color="#962AFF"/>
</linearGradient>
<linearGradient id="paint5_linear_25_1971" x1="48" y1="92.476" x2="48" y2="67.78" gradientUnits="userSpaceOnUse">
<stop stop-color="#C99FFF"/>
<stop offset="0.219" stop-color="#BE85FF"/>
<stop offset="1" stop-color="#962AFF"/>
</linearGradient>
<linearGradient id="paint6_linear_25_1971" x1="48" y1="15.82" x2="48" y2="6.906" gradientUnits="userSpaceOnUse">
<stop stop-color="#962AFF"/>
<stop offset="0.781" stop-color="#BE85FF"/>
<stop offset="1" stop-color="#C99FFF"/>
</linearGradient>
<linearGradient id="paint7_linear_25_1971" x1="48" y1="71.82" x2="48" y2="60.196" gradientUnits="userSpaceOnUse">
<stop stop-color="#962AFF"/>
<stop offset="0.781" stop-color="#BE85FF"/>
<stop offset="1" stop-color="#C99FFF"/>
</linearGradient>
</defs>
</svg>
