<svg width="96" height="96" viewBox="0 0 96 96" fill="none" xmlns="http://www.w3.org/2000/svg">
<path opacity="0.1" d="M50 31.9996C50 44.1596 40.16 53.9996 28 53.9996C23.74 53.9996 19.76 52.7996 16.4 50.6996C15.84 50.3596 15.32 49.9996 14.8 49.5996C14.24 49.1796 13.72 48.7596 13.2 48.2796C10.78 46.0996 8.86001 43.3796 7.62001 40.2996C7.60001 40.1996 7.60001 40.0996 7.60001 39.9996V29.9996C7.60001 24.2596 12.26 19.5996 18 19.5996H46.18C46.54 20.1196 46.86 20.6596 47.18 21.1996C47.46 21.7196 47.74 22.2596 48 22.7996C48.24 23.3196 48.46 23.8396 48.64 24.3996C49.52 26.7596 50 29.3196 50 31.9996Z" fill="#118BEF"/>
<path opacity="0.2" d="M50 32.0002C50 44.1602 40.16 54.0002 28 54.0002C23.74 54.0002 19.76 52.8002 16.4 50.7002C15.84 50.3602 15.32 50.0002 14.8 49.6002C14.24 49.1802 13.72 48.7602 13.2 48.2802V47.3802C10.74 45.7602 9.2 42.9602 9.2 40.0002V30.0002C9.2 25.1402 13.14 21.2002 18 21.2002H47.18C47.46 21.7202 47.74 22.2602 48 22.8002C48.24 23.3202 48.46 23.8402 48.64 24.4002C49.52 26.7602 50 29.3202 50 32.0002Z" fill="#118BEF"/>
<path opacity="0.3" d="M50 31.9998C50 44.1598 40.16 53.9998 28 53.9998C23.74 53.9998 19.76 52.7998 16.4 50.6998C15.84 50.3598 15.32 49.9998 14.8 49.5998V46.4398C12.4 45.2398 10.8 42.7398 10.8 39.9998V29.9998C10.8 26.0198 14.04 22.7998 18 22.7998H48C48.24 23.3198 48.46 23.8398 48.64 24.3998C49.52 26.7598 50 29.3198 50 31.9998Z" fill="#118BEF"/>
<path opacity="0.4" d="M50 32.0004C50 44.1604 40.16 54.0004 28 54.0004C23.74 54.0004 19.76 52.8004 16.4 50.7004V45.3604C14.08 44.6804 12.4 42.5404 12.4 40.0004V30.0004C12.4 26.9204 14.92 24.4004 18 24.4004H48.64C49.52 26.7604 50 29.3204 50 32.0004Z" fill="#118BEF"/>
<path d="M86 26H18C15.79 26 14 27.79 14 30V40C14 42.208 15.79 44 18 44V82C18 84.208 19.79 86 22 86H82C84.21 86 86 84.208 86 82V44C88.21 44 90 42.208 90 40V30C90 27.79 88.21 26 86 26Z" fill="url(#paint0_linear_25_1939)"/>
<path opacity="0.4" d="M70 32C70 34.2 71.8 36 74 36C76.2 36 78 34.2 78 32V24.5H70V32Z" fill="#007CE2"/>
<path opacity="0.3" d="M70 32C70 34.2 71.8 36 74 36C76.2 36 78 34.2 78 32V23H70V32Z" fill="#007CE2"/>
<path opacity="0.2" d="M70 32C70 34.2 71.8 36 74 36C76.2 36 78 34.2 78 32V21.5H70V32Z" fill="#007CE2"/>
<path opacity="0.1" d="M70 32C70 34.2 71.8 36 74 36C76.2 36 78 34.2 78 32V20H70V32Z" fill="#007CE2"/>
<path opacity="0.05" d="M66 26V32C66 36.412 69.588 40 74 40C78.412 40 82 36.412 82 32V26H66Z" fill="#1DA4FF"/>
<path opacity="0.1" d="M66.8 26V32C66.8 35.97 70.03 39.2 74 39.2C77.97 39.2 81.2 35.97 81.2 32V26H66.8Z" fill="#1DA4FF"/>
<path opacity="0.2" d="M67.6 26V32C67.6 35.528 70.472 38.4 74 38.4C77.528 38.4 80.4 35.528 80.4 32V26H67.6Z" fill="#1DA4FF"/>
<path opacity="0.3" d="M68.4 26V32C68.4 35.084 70.916 37.6 74 37.6C77.084 37.6 79.6 35.084 79.6 32V26H68.4Z" fill="#1DA4FF"/>
<path opacity="0.4" d="M69.2 26V32C69.2 34.642 71.358 36.8 74 36.8C76.642 36.8 78.8 34.642 78.8 32V26H69.2Z" fill="#1DA4FF"/>
<path d="M70 26V32C70 34.2 71.8 36 74 36C76.2 36 78 34.2 78 32V26H70Z" fill="#1DA4FF"/>
<path d="M74 14C71.8 14 70 15.8 70 18V32C70 34.2 71.8 36 74 36C76.2 36 78 34.2 78 32V18C78 15.8 76.2 14 74 14Z" fill="url(#paint1_linear_25_1939)"/>
<path d="M74 15C75.654 15 77 16.346 77 18V32C77 33.654 75.654 35 74 35C72.346 35 71 33.654 71 32V18C71 16.346 72.346 15 74 15ZM74 14C71.8 14 70 15.8 70 18V32C70 34.2 71.8 36 74 36C76.2 36 78 34.2 78 32V18C78 15.8 76.2 14 74 14Z" fill="url(#paint2_linear_25_1939)"/>
<path d="M28 46H40V58H28V46ZM46 58H58V46H46V58ZM64 58H76V46H64V58ZM28 76H40V64H28V76ZM46 76H58V64H46V76ZM64 76H76V64H64V76Z" fill="url(#paint3_linear_25_1939)"/>
<path opacity="0.05" d="M54 32C54 46.34 42.34 58 28 58C24.46 58 21.08 57.28 18 56V44C15.8 44 14 42.2 14 40V30C14 27.8 15.8 26 18 26H53.3C53.76 27.92 54 29.94 54 32Z" fill="#118BEF"/>
<path opacity="0.1" d="M53.2 32C53.2 45.9 41.9 57.2 28 57.2C24.44 57.2 21.06 56.46 18 55.14V44C15.8 44 14 42.2 14 40V30C14 27.8 15.8 26 18 26H52.46C52.96 27.92 53.2 29.94 53.2 32Z" fill="#118BEF"/>
<path opacity="0.2" d="M52.4 32C52.4 45.46 41.46 56.4 28 56.4C24.44 56.4 21.04 55.64 18 54.24V44C15.8 44 14 42.2 14 40V30C14 27.8 15.8 26 18 26H51.64C52.14 27.92 52.4 29.94 52.4 32Z" fill="#118BEF"/>
<path opacity="0.3" d="M51.6 32C51.6 45.02 41.02 55.6 28 55.6C24.42 55.6 21.04 54.8 18 53.38V44C15.8 44 14 42.2 14 40V30C14 27.8 15.8 26 18 26H50.84C51.34 27.92 51.6 29.92 51.6 32Z" fill="#118BEF"/>
<path opacity="0.4" d="M50.8 32C50.8 44.58 40.58 54.8 28 54.8C24.42 54.8 21.02 53.96 18 52.48V44C15.8 44 14 42.2 14 40V30C14 27.8 15.8 26 18 26H50C50.52 27.92 50.8 29.92 50.8 32Z" fill="#118BEF"/>
<path d="M28 54C40.1503 54 50 44.1503 50 32C50 19.8497 40.1503 10 28 10C15.8497 10 6 19.8497 6 32C6 44.1503 15.8497 54 28 54Z" fill="url(#paint4_linear_25_1939)"/>
<path d="M28 11C39.58 11 49 20.42 49 32C49 43.58 39.58 53 28 53C16.42 53 7 43.58 7 32C7 20.42 16.42 11 28 11ZM28 10C15.85 10 6 19.85 6 32C6 44.15 15.85 54 28 54C40.15 54 50 44.15 50 32C50 19.85 40.15 10 28 10Z" fill="url(#paint5_linear_25_1939)"/>
<path opacity="0.05" d="M34 44.0041C32.404 44.0041 30.898 43.3781 29.762 42.2461L23.76 36.2461C22.624 35.1081 22 33.6001 22 32.0001V20.0001C22 16.6901 24.692 13.9961 28 13.9961C31.308 13.9961 34 16.6901 34 20.0001V29.5121L38.242 33.7541C39.374 34.8921 40 36.4001 40 38.0001C40 39.6021 39.376 41.1081 38.246 42.2401C37.102 43.3761 35.596 44.0041 34 44.0041Z" fill="#9F5CFF"/>
<path opacity="0.1" d="M34 43.2039C32.616 43.2039 31.312 42.6619 30.326 41.6799L24.324 35.6799C23.342 34.6939 22.8 33.3879 22.8 31.9999V19.9999C22.8 17.1299 25.132 14.7959 28 14.7959C30.868 14.7959 33.2 17.1299 33.2 19.9999V29.8439L37.676 34.3199C38.658 35.3059 39.2 36.6119 39.2 37.9999C39.2 39.3879 38.66 40.6939 37.678 41.6759C36.69 42.6599 35.384 43.2039 34 43.2039Z" fill="#9F5CFF"/>
<path opacity="0.2" d="M34 42.4017C32.828 42.4017 31.724 41.9437 30.89 41.1117L24.89 35.1117C24.058 34.2797 23.6 33.1737 23.6 31.9997V19.9997C23.6 17.5717 25.574 15.5977 28 15.5977C30.426 15.5977 32.4 17.5717 32.4 19.9997V30.1757L37.11 34.8857C37.942 35.7197 38.4 36.8257 38.4 37.9997C38.4 39.1737 37.942 40.2797 37.112 41.1117C36.276 41.9437 35.172 42.4017 34 42.4017Z" fill="#9F5CFF"/>
<path opacity="0.3" d="M34 41.6024C33.04 41.6024 32.136 41.2264 31.456 40.5484L25.456 34.5484C24.774 33.8664 24.4 32.9604 24.4 32.0004V20.0004C24.4 18.0144 26.014 16.3984 28 16.3984C29.986 16.3984 31.6 18.0144 31.6 20.0004V30.5084L36.546 35.4544C37.226 36.1344 37.6 37.0404 37.6 38.0004C37.6 38.9604 37.226 39.8664 36.546 40.5464C35.864 41.2264 34.96 41.6024 34 41.6024Z" fill="#9F5CFF"/>
<path opacity="0.4" d="M34 40.8002C33.252 40.8002 32.548 40.5082 32.02 39.9802L26.02 33.9802C25.49 33.4502 25.2 32.7482 25.2 32.0002V20.0002C25.2 18.4582 26.456 17.2002 28 17.2002C29.544 17.2002 30.8 18.4582 30.8 20.0002V30.8402L35.98 36.0202C36.51 36.5502 36.8 37.2522 36.8 38.0002C36.8 38.7482 36.508 39.4522 35.98 39.9802C35.452 40.5082 34.748 40.8002 34 40.8002Z" fill="#9F5CFF"/>
<path d="M34 40C33.488 40 32.976 39.804 32.586 39.414L26.586 33.414C26.21 33.04 26 32.532 26 32V20C26 18.894 26.896 18 28 18C29.104 18 30 18.894 30 20V31.172L35.414 36.586C36.196 37.368 36.196 38.632 35.414 39.414C35.024 39.804 34.512 40 34 40Z" fill="white"/>
<defs>
<linearGradient id="paint0_linear_25_1939" x1="52" y1="89.004" x2="52" y2="-4.486" gradientUnits="userSpaceOnUse">
<stop stop-color="#009CFC"/>
<stop offset="0.12" stop-color="#18ABFC"/>
<stop offset="0.416" stop-color="#4ECCFE"/>
<stop offset="0.672" stop-color="#76E4FE"/>
<stop offset="0.875" stop-color="#8EF3FF"/>
<stop offset="1" stop-color="#97F8FF"/>
</linearGradient>
<linearGradient id="paint1_linear_25_1939" x1="74" y1="14.24" x2="74" y2="46.804" gradientUnits="userSpaceOnUse">
<stop stop-color="#E4C5FF" stop-opacity="0.4"/>
<stop offset="1" stop-color="#F4E9FF" stop-opacity="0.2"/>
</linearGradient>
<linearGradient id="paint2_linear_25_1939" x1="74" y1="34" x2="74" y2="12.228" gradientUnits="userSpaceOnUse">
<stop stop-color="#F6E9FF" stop-opacity="0.1"/>
<stop offset="1" stop-color="#DAA6FF" stop-opacity="0.6"/>
</linearGradient>
<linearGradient id="paint3_linear_25_1939" x1="52" y1="61" x2="52" y2="13" gradientUnits="userSpaceOnUse">
<stop stop-color="#009CFC"/>
<stop offset="0.12" stop-color="#18ABFC"/>
<stop offset="0.416" stop-color="#4ECCFE"/>
<stop offset="0.672" stop-color="#76E4FE"/>
<stop offset="0.875" stop-color="#8EF3FF"/>
<stop offset="1" stop-color="#97F8FF"/>
</linearGradient>
<linearGradient id="paint4_linear_25_1939" x1="46.8" y1="13.42" x2="9.906" y2="49.882" gradientUnits="userSpaceOnUse">
<stop stop-color="#DAA6FF" stop-opacity="0.6"/>
<stop offset="1" stop-color="#DCA6FF" stop-opacity="0.4"/>
</linearGradient>
<linearGradient id="paint5_linear_25_1939" x1="6.008" y1="13.802" x2="39.908" y2="41.854" gradientUnits="userSpaceOnUse">
<stop stop-color="#F5EBFF" stop-opacity="0.2"/>
<stop offset="1" stop-color="#DAA6FF" stop-opacity="0.4"/>
</linearGradient>
</defs>
</svg>
