<svg width="96" height="97" viewBox="0 0 96 97" fill="none" xmlns="http://www.w3.org/2000/svg">
<path opacity="0.1" d="M74.4 21.5V75.5C74.4 76.54 74.22 77.56 73.9 78.5H65C63.34 78.5 62 77.16 62 75.5V21.5C62 19.84 63.34 18.5 65 18.5H73.9C74.22 19.44 74.4 20.46 74.4 21.5Z" fill="#FE8E0D"/>
<path opacity="0.2" d="M72.8 21.5V75.5C72.8 76.56 72.58 77.58 72.2 78.5H65C63.34 78.5 62 77.16 62 75.5V21.5C62 19.84 63.34 18.5 65 18.5H72.2C72.58 19.42 72.8 20.44 72.8 21.5Z" fill="#FE8E0D"/>
<path opacity="0.3" d="M71.2 21.5V75.5C71.2 76.58 70.92 77.6 70.42 78.5H65C63.34 78.5 62 77.16 62 75.5V21.5C62 19.84 63.34 18.5 65 18.5H70.42C70.92 19.4 71.2 20.42 71.2 21.5Z" fill="#FE8E0D"/>
<path opacity="0.4" d="M69.6 21.5V75.5C69.6 76.64 69.18 77.68 68.5 78.5H65C63.34 78.5 62 77.16 62 75.5V21.5C62 19.84 63.34 18.5 65 18.5H68.5C69.18 19.32 69.6 20.36 69.6 21.5Z" fill="#FE8E0D"/>
<path d="M68 75.5V21.5C68 19.844 66.656 18.5 65 18.5H10C7.79 18.5 6 20.29 6 22.5V38.71C6 39.682 6.708 40.472 7.66 40.672C11.282 41.436 14 44.65 14 48.5C14 52.35 11.282 55.564 7.66 56.328C6.708 56.528 6 57.318 6 58.29V74.5C6 76.71 7.79 78.5 10 78.5H65C66.656 78.5 68 77.156 68 75.5Z" fill="url(#paint0_linear_25_1994)"/>
<path opacity="0.05" d="M68 21.5V75.5C68 77.16 66.66 78.5 65 78.5H58.7C58.24 77.6 58 76.58 58 75.5V21.5C58 20.42 58.24 19.4 58.7 18.5H65C66.66 18.5 68 19.84 68 21.5Z" fill="#FE8E0D"/>
<path opacity="0.1" d="M68 21.5V75.5C68 77.16 66.66 78.5 65 78.5H59.58C59.08 77.6 58.8 76.58 58.8 75.5V21.5C58.8 20.42 59.08 19.4 59.58 18.5H65C66.66 18.5 68 19.84 68 21.5Z" fill="#FE8E0D"/>
<path opacity="0.2" d="M68 21.5V75.5C68 77.16 66.66 78.5 65 78.5H60.5C59.94 77.64 59.6 76.6 59.6 75.5V21.5C59.6 20.4 59.94 19.36 60.5 18.5H65C66.66 18.5 68 19.84 68 21.5Z" fill="#FE8E0D"/>
<path opacity="0.3" d="M68 21.5V75.5C68 77.16 66.66 78.5 65 78.5H61.5C60.82 77.68 60.4 76.64 60.4 75.5V21.5C60.4 20.36 60.82 19.32 61.5 18.5H65C66.66 18.5 68 19.84 68 21.5Z" fill="#FE8E0D"/>
<path opacity="0.4" d="M68 21.5V75.5C68 77.16 66.66 78.5 65 78.5H62.7C61.78 77.84 61.2 76.74 61.2 75.5V21.5C61.2 20.26 61.78 19.16 62.7 18.5H65C66.66 18.5 68 19.84 68 21.5Z" fill="#FE8E0D"/>
<path d="M90 74.5V58.29C90 57.318 89.292 56.528 88.34 56.328C84.718 55.564 82 52.35 82 48.5C82 44.65 84.718 41.436 88.342 40.672C89.292 40.472 90 39.682 90 38.71V22.5C90 20.29 88.21 18.5 86 18.5H65C63.344 18.5 62 19.844 62 21.5V75.5C62 77.156 63.344 78.5 65 78.5H86C88.21 78.5 90 76.71 90 74.5Z" fill="url(#paint1_linear_25_1994)"/>
<path d="M86 19.5C87.654 19.5 89 20.846 89 22.5V38.71C89 39.182 88.644 39.586 88.134 39.694C84 40.566 81 44.268 81 48.5C81 52.73 84 56.434 88.134 57.306C88.644 57.414 89 57.818 89 58.29V74.5C89 76.154 87.654 77.5 86 77.5H65C63.898 77.5 63 76.602 63 75.5V21.5C63 20.398 63.898 19.5 65 19.5H86ZM86 18.5H65C63.344 18.5 62 19.844 62 21.5V75.5C62 77.156 63.344 78.5 65 78.5H86C88.21 78.5 90 76.71 90 74.5V58.29C90 57.318 89.292 56.528 88.34 56.328C84.718 55.564 82 52.35 82 48.5C82 44.65 84.718 41.436 88.342 40.672C89.292 40.472 90 39.682 90 38.71V22.5C90 20.29 88.21 18.5 86 18.5Z" fill="url(#paint2_linear_25_1994)"/>
<defs>
<linearGradient id="paint0_linear_25_1994" x1="-16.168" y1="48.5" x2="99.454" y2="48.5" gradientUnits="userSpaceOnUse">
<stop stop-color="#FE7D08"/>
<stop offset="0.021" stop-color="#FE8009"/>
<stop offset="0.331" stop-color="#FDAC15"/>
<stop offset="0.608" stop-color="#FCCC1D"/>
<stop offset="0.841" stop-color="#FCE022"/>
<stop offset="1" stop-color="#FCE724"/>
</linearGradient>
<linearGradient id="paint1_linear_25_1994" x1="76" y1="53.832" x2="76" y2="107.608" gradientUnits="userSpaceOnUse">
<stop stop-color="#F4805D" stop-opacity="0.4"/>
<stop offset="1" stop-color="#FFD8BB" stop-opacity="0.4"/>
</linearGradient>
<linearGradient id="paint2_linear_25_1994" x1="93.794" y1="48.632" x2="44.772" y2="48.278" gradientUnits="userSpaceOnUse">
<stop stop-color="#FFFFF0" stop-opacity="0.3"/>
<stop offset="1" stop-color="#FF9A83" stop-opacity="0.4"/>
</linearGradient>
</defs>
</svg>
